# xmcd
#
# Track frame offsets: 
#        150
#        26400
#        46701
#        78524
#        103297
#        127797
#        184390
#        205960
#        225648
#        246593
#        267138
#        288837
#
# Disc length: 4060 seconds
#
# Revision: 0
# Processed by: cddbd v1.5.2PL0 Copyright (c) Steve Scherf et al.
# Submitted via: ExactAudioCopy v1.3
#
DISCID=a30fda0c
DTITLE=Imperial Crowns - 25 Live [Disk 2]
DYEAR=2018
DGENRE=Blues Rock
TTITLE0=Lil' Death
TTITLE1=Love Blues
TTITLE2=Love T.K.O.
TTITLE3=Miz Aphrodite
TTITLE4=Papa Lawd
TTITLE5=Ramblin' Woman Blues
TTITLE6=Restless Soul
TTITLE7=Soul Deep Freak
TTITLE8=Star Of The West
TTITLE9=The Calling
TTITLE10=The River
TTITLE11=93 Blues
EXTD=
EXTT0=
EXTT1=
EXTT2=
EXTT3=
EXTT4=
EXTT5=
EXTT6=
EXTT7=
EXTT8=
EXTT9=
EXTT10=
EXTT11=
PLAYORDER=
